<svg width="1600" height="900" viewBox="0 0 1600 900" fill="none" xmlns="http://www.w3.org/2000/svg">
  <defs>
    <linearGradient id="bg" x1="0" y1="0" x2="0" y2="1">
      <stop offset="0%" stop-color="#0B0F1A"/>
      <stop offset="100%" stop-color="#05070C"/>
    </linearGradient>
    <linearGradient id="fade" x1="0" y1="0" x2="1" y2="0">
      <stop offset="0%" stop-color="#FFFFFF" stop-opacity="0.08"/>
      <stop offset="50%" stop-color="#FFFFFF" stop-opacity="0.02"/>
      <stop offset="100%" stop-color="#FFFFFF" stop-opacity="0.08"/>
    </linearGradient>
  </defs>
  <rect width="1600" height="900" fill="url(#bg)"/>
  <rect y="0" width="1600" height="900" fill="url(#fade)" opacity="0.5"/>
  <g opacity="0.18" stroke="#FFFFFF" stroke-width="2">
    <line x1="200" y1="0" x2="200" y2="900"/>
    <line x1="400" y1="0" x2="400" y2="900"/>
    <line x1="600" y1="0" x2="600" y2="900"/>
    <line x1="800" y1="0" x2="800" y2="900"/>
    <line x1="1000" y1="0" x2="1000" y2="900"/>
    <line x1="1200" y1="0" x2="1200" y2="900"/>
    <line x1="1400" y1="0" x2="1400" y2="900"/>
  </g>
  <g opacity="0.2" fill="#FFFFFF">
    <circle cx="120" cy="120" r="2"/>
    <circle cx="320" cy="220" r="2"/>
    <circle cx="520" cy="160" r="2"/>
    <circle cx="720" cy="260" r="2"/>
    <circle cx="920" cy="200" r="2"/>
    <circle cx="1120" cy="300" r="2"/>
    <circle cx="1320" cy="180" r="2"/>
    <circle cx="1520" cy="260" r="2"/>
  </g>
</svg>
